# xmcd
#
# Track frame offsets: 
#        150
#        22760
#        46947
#        74508
#        95320
#        124753
#        152705
#        176804
#        205009
#        229687
#        247891
#        272651
#
# Disc length: 3982 seconds
#
# Revision: 0
# Processed by: cddbd v1.5.2PL0 Copyright (c) Steve Scherf et al.
# Submitted via: ExactAudioCopy v1.0b3
#
DISCID=960f8c0c
DTITLE=Ngoc Son - Ve Voi Co Don
DYEAR=2000
DGENRE=
TTITLE0=Nghi suy gi em
TTITLE1=Ve voi co don
TTITLE2=Tam su doi tam
TTITLE3=Xom vang
TTITLE4=Loi tinh dau
TTITLE5=Siet chac ban tay
TTITLE6=Duoi troi di vang
TTITLE7=Doi thay
TTITLE8=Em da di roi
TTITLE9=Mot thoi da mat
TTITLE10=Pho thuong
TTITLE11=Thuyen hoa
EXTD=
EXTT0=
EXTT1=
EXTT2=
EXTT3=
EXTT4=
EXTT5=
EXTT6=
EXTT7=
EXTT8=
EXTT9=
EXTT10=
EXTT11=
PLAYORDER=
